<?xml version="1.0" encoding="iso-8859-1"?>
<!-- Generator: Adobe Illustrator 19.0.0, SVG Export Plug-In . SVG Version: 6.00 Build 0)  -->
<svg version="1.1" id="Layer_1" xmlns="http://www.w3.org/2000/svg" xmlns:xlink="http://www.w3.org/1999/xlink" x="0px" y="0px"
	 viewBox="0 0 549.44 549.44" style="enable-background:new 0 0 549.44 549.44;" xml:space="preserve">
<circle style="fill:#0BA4E0;" cx="272.232" cy="277.488" r="256"/>
<g>
	<g>
		<rect x="264.152" y="13.728" style="fill:#FFFFFF;" width="16" height="533.12"/>
		<rect x="15.64" y="269.584" style="fill:#FFFFFF;" width="518.16" height="16"/>
		<path style="fill:#FFFFFF;" d="M271.896,208.576C130.2,208.576,71.928,92.72,71.352,91.552l14.368-7.04
			c2.176,4.416,54.688,108.064,186.176,108.064c131.808,0,184.24-105.808,184.752-106.88l14.4,6.944
			C470.504,93.808,413.64,208.576,271.896,208.576z"/>
		<path style="fill:#FFFFFF;" d="M85.72,470.624L71.352,463.6c0.576-1.168,58.848-117.024,200.544-117.024
			c141.744,0,198.608,114.784,199.152,115.936l-14.4,6.96c-2.112-4.368-53.296-106.896-184.752-106.896
			C140.056,362.56,86.248,469.552,85.72,470.624z"/>
		<path style="fill:#FFFFFF;" d="M261.064,549.44c-5.008-4.832-123.008-120.128-123.008-276.912
			C138.056,115.616,258.68,4.64,263.8,0l10.752,11.856C273.336,12.96,154.04,122.848,154.04,272.528
			c0,149.824,116.944,264.24,118.112,265.376L261.064,549.44z"/>
		<path style="fill:#FFFFFF;" d="M283.24,549.44l-11.088-11.536c1.168-1.136,118.112-115.552,118.112-265.376
			c0-149.888-119.28-259.584-120.496-260.672L280.52,0c5.12,4.656,125.744,115.616,125.744,272.528
			C406.264,429.312,288.264,544.608,283.24,549.44z"/>
	</g>
</g>
<g>
</g>
<g>
</g>
<g>
</g>
<g>
</g>
<g>
</g>
<g>
</g>
<g>
</g>
<g>
</g>
<g>
</g>
<g>
</g>
<g>
</g>
<g>
</g>
<g>
</g>
<g>
</g>
<g>
</g>
</svg>
