<svg xmlns="http://www.w3.org/2000/svg" enable-background="new 0 0 1920 1080" viewBox="0 0 1920 1080" id="attract-users"><ellipse cx="1070.6" cy="1012.2" fill="#2a94f4" opacity=".1" rx="398.6" ry="63"></ellipse><path fill="#2a94f4" d="m1029.8 329.6 101.8 100.3c23.3 22.9 24.2 60.2 2 84.3l-32.4 35c-22.4 24.2-60 26.1-84.6 4.2L732.9 302c-45.5-40.3-115.4-35.2-154.5 11.4-37.1 44.2-33 109.6 9.3 148.9L839.8 696c24.6 22.8 26 61.2 3.1 85.7-21.9 23.5-58.2 25.8-82.9 5.4L488.8 562.5c-28.7-23.7-70.9-20.6-95.8 7.1-24.7 27.4-23.6 69.4 2.5 95.5L622.6 892c211.5 211.3 554.6 209.8 764.2-3.3 216-219.6 203.9-575.3-26.4-779.8l-67.9-60.3c-67.7-60.1-168-64.9-241.1-11.6-95.9 69.9-106.2 209.2-21.6 292.6z" opacity=".1"></path><path fill="#c14242" d="m883.9 354.1 141.5 141.5c24.9 24.9 24.9 65.2 0 90.1-24.9 24.9-65.2 24.9-90.1 0L793.8 444.2 717 520.9l143.2 143.2c67.3 67.3 176.4 67.3 243.6 0 67.3-67.3 67.3-176.4 0-243.6L960.6 277.3l-76.7 76.8z"></path><path fill="#cce9ff" d="M842.1 252.2h108.6v75.5H842.1z" transform="rotate(-45.001 896.413 289.978)"></path><path fill="#cce9ff" d="M675.3 419.1h108.6v75.5H675.3z" transform="rotate(-45.001 729.54 456.848)"></path><g><path fill="#fcd2b1" d="m1190.4 516.4 8 14.7c15.7 38.6 8.2 83.3-20.4 113.6-.8.9-1.7 1.8-2.6 2.7h-8.2l23.2-131z"></path><path fill="#0b4870" d="m1190.4 731.9-13 86.4 101.2 162.8-21.4 13.7-116.1-145.3-36-139.5 30.7-46.9 47.3-31 2 11.4c4.9 29.2 6.8 58.8 5.3 88.4z"></path><path fill="#0b4870" d="M1087.1 639.1 984.4 786.5l-15.6 211h29.5l38.2-200.8 82.4-63.1c30.2-19 49.9-50.9 53.4-86.4l-85.2-8.1z"></path><path fill="#ffbe55" d="M1132.7 446.9s-27.3 64.7-21.2 83.8c6.1 19.1-26.9 105.2-28.3 113.7s102.6 32.7 104 25.4c1.4-7.3 38.2-171.9-14-217.6-16.6-14.5-33.3-14.9-40.5-5.3z"></path><path fill="#af7054" d="m1137.5 425.4-1.6 20.6c-.5 6.2 4.8 11.3 11 10.6l5.1-.6c5.8-1.2 9.8-6.5 9.3-12.4l-2.9-35.7-20.9 17.5z"></path><path fill="#b97a59" d="M1134.5 346.9s-35 46.1-18.7 72.3c16.3 26.3 55.1-11.1 60.2-17.7 5.1-6.6-4-78.9-41.5-54.6zM1128.9 489.6s-90.6 10.5-97.9 8.4c-4.2-1.2-34.9-30.7-56.9-53.6-16-16.7-31.4-31.4-31.4-31.4l3.5 28 16.8 12.7 39.6 60.8c6.2 8.4 16 13.4 26.5 13.4l102-10.2-2.2-28.1z"></path><path fill="#b97a59" d="M952.3 433s3.9-11.7 1.7-15.9c-1.8-3.3-3.4-7.1-3.5-9.7 0-.8.8-1.3 1.6-.9 2 1.2 5.7 3.6 6.7 6.5 1.4 4.1 7.3 9.5 8.7 12.9s1.8 15.6 1.8 15.6l-17-8.5z"></path><path fill="#ffbe55" d="m1097.2 493 10.4 40.9s89.6-22.5 78.2-57.8c-11.2-34.6-88.6 16.9-88.6 16.9z"></path><path fill="#0e538c" d="M1257.2 994.7s-.6 7.9-15.7 14.3c-18.8 8-22.3 15.2-17.9 17.9h15.9c6.5-.3 27.7-5.9 32.4-10.4 1.7-1.7 3.6-3.5 5.3-5.6 2.1-2.4 13.3-1.4 12.9-7.5-1.1-14.4-15.1-20.1-15.1-20.1l-17.8 11.4zM972.3 997.5s-.2 11.2-21.9 9c-23.8-2.4-35.2 20.4-27.7 19.9 0 0 36.8-.8 44.1-1.1 7-.3 22.5 1.5 22.5 1.5 6.2 0 4.7-6.1 4.8-8.6l1.9-20.7h-23.7z"></path><path fill="#0b4870" d="M1168.5 408s6.4-5.4 5.6-14.6c-.8-9.2-6.1-3.9-9.8-1.4-3.6 2.5 2-7.8 3.6-11.2.7-1.3-3.8-8.4-10.5-14.5-2.5-2.2-6.2-2.7-9.1-1-13.8 8.2-18.2 2.9-21.3.9-3.1-2-4.5-5.9-3-9.4 6.1-14.7 19.6-32.1 46.9-12.7.3.2.5.4.8.5 3.8 2 32.9 17.9 25 38.1-8.2 21.2-23 39.7-37.7 34.2"></path></g></svg>