<?xml version="1.0" encoding="iso-8859-1"?>
<!-- Generator: Adobe Illustrator 19.0.0, SVG Export Plug-In . SVG Version: 6.00 Build 0)  -->
<svg version="1.1" id="Capa_1" xmlns="http://www.w3.org/2000/svg" xmlns:xlink="http://www.w3.org/1999/xlink" x="0px" y="0px"
	 viewBox="0 0 488.918 488.918" style="enable-background:new 0 0 488.918 488.918;" xml:space="preserve">
<g>
	<g>
		<path d="M13.213,312.659c27.1,66.8,92.2,110.2,164.4,110.2c23.5,0,46.1-4.5,67.7-13.5c4.6-1.9,9.1-4,13.5-6.2
			c-5.5-4.6-10.7-9.3-15.7-14.3c-10.1-10.3-18.4-20.9-25-31.9c-6.5,9.3-13.5,16.8-20.7,21.7v-55.2v-36.1l0.1-98.9v13.1h-0.1v-36.1
			v-56.9c10.9,6,20.9,17.4,29.3,32.3c6.1-2.7,13-4.3,20.5-4.7c5.3-0.3,10.7-1.1,16.1-2.2l2.3-0.4c12.3-2.8,24.8-7.6,38-14.7
			c-32.7-33.1-77.5-52.8-126.1-52.8c-23.5,0-46.1,4.5-67.7,13.5C19.613,117.559-23.787,221.459,13.213,312.659z M161.413,378.559
			c-14.4-9.9-28-29.8-38.8-55.1h38.8V378.559z M161.413,108.559v56.9h-40.6C130.713,139.259,145.113,118.459,161.413,108.559z
			 M110.813,201.559h50.6v85.8h-49.7c-3.6-14.5-5.4-28.9-5.4-43.4C106.313,229.559,108.113,215.059,110.813,201.559z
			 M59.313,323.459h24.4c4.5,14.5,10.8,28.9,18.1,41.5C85.513,354.159,71.013,340.659,59.313,323.459z M99.013,126.559
			c-6.3,11.7-11.7,25.3-16.3,38.8h-22.5C70.113,150.059,82.813,136.559,99.013,126.559z M42.113,201.559h31.6
			c-2.7,14.5-3.6,28.9-3.6,42.4s1.8,28,4.5,43.4h-32.5C33.113,258.459,33.113,228.659,42.113,201.559z"/>
		<path d="M358.013,123.059c-6.4,0-10.8,3.1-14.6,5.8c-33.5,23.2-63.6,34.8-94.6,36.6c-8.2,0.4-21.8,3.9-21.8,23.1l-0.1,31.1
			c-0.1,21-0.1,42,0.1,62.9c0,8.4,1,17.2,3.2,27c4.7,21,15.8,40.1,33.9,58.6c22.2,22.5,50.2,39.9,86.2,53.5c2.4,0.8,4.9,1.2,7.5,1.2
			l0,0c3.6,0,7.1-0.8,9.5-2l9.1-4c7.5-3.2,15-6.5,22.7-10.3c28.3-14.8,50-32.7,66.2-54.6c14.3-18.9,22.1-39.1,23-60
			c0.7-14,0.6-28.2,0.6-42v-62.2c0-12-7.3-20.2-19.8-21.9l-5.3-0.6c-7.1-0.8-13.8-1.6-20.2-3.1c-23.3-5.2-45.8-15.7-70.9-33.2
			C368.813,126.159,364.313,123.059,358.013,123.059z M457.113,275.759c-0.1,4.9-0.2,9.8-0.4,14.7c-0.7,14.7-6.1,28.6-16.8,42.6
			c-13.4,18.1-31.6,33-55.3,45.4c-6.9,3.4-13.9,6.5-20.8,9.5c-2,0.8-3.9,1.7-6,2.6v-114.8h-99.4c-0.1-18.7-0.1-37.4-0.1-56l0.1-23.5
			c33.1-3.4,65-16,99.4-39.1v118.6H457.113z"/>
	</g>
</g>
<g>
</g>
<g>
</g>
<g>
</g>
<g>
</g>
<g>
</g>
<g>
</g>
<g>
</g>
<g>
</g>
<g>
</g>
<g>
</g>
<g>
</g>
<g>
</g>
<g>
</g>
<g>
</g>
<g>
</g>
</svg>
